<svg width="24" height="24" viewBox="0 0 24 24" fill="none" xmlns="http://www.w3.org/2000/svg">
<path fill-rule="evenodd" clip-rule="evenodd" d="M5.30792 9.94035C5.98718 7.73073 7.73073 5.98718 9.94035 5.30792C10.5915 5.10775 11.2832 5 12 5C12.7168 5 13.4085 5.10775 14.0597 5.30792C16.2693 5.98718 18.0128 7.73074 18.6921 9.94035C18.8923 10.5915 19 11.2832 19 12C19 15.866 15.866 19 12 19C8.13401 19 5 15.866 5 12C5 11.2832 5.10775 10.5915 5.30792 9.94035ZM3.47625 9.1035C2.57541 8.37005 2 7.25222 2 6C2 3.79086 3.79086 2 6 2C7.25222 2 8.37005 2.57541 9.1035 3.47625C10.0124 3.16747 10.9867 3 12 3C13.0133 3 13.9876 3.16747 14.8965 3.47625C15.6299 2.57541 16.7478 2 18 2C20.2091 2 22 3.79086 22 6C22 7.25222 21.4246 8.37005 20.5238 9.1035C20.8325 10.0124 21 10.9867 21 12C21 14.6747 19.8332 17.0769 17.9809 18.7254L18.8947 20.5529C19.1417 21.0468 18.9414 21.6475 18.4475 21.8945C17.9535 22.1415 17.3528 21.9413 17.1058 21.4473L16.3285 19.8927C15.0442 20.5985 13.569 21 12 21C10.4312 21 8.9561 20.5986 7.67188 19.8929L6.89464 21.4473C6.64765 21.9413 6.04697 22.1415 5.55299 21.8945C5.05902 21.6475 4.8588 21.0468 5.1058 20.5529L6.01943 18.7257C4.16691 17.0772 3 14.6749 3 12C3 10.9867 3.16747 10.0124 3.47625 9.1035Z" fill="white" fill-opacity="0.6"/>
<path d="M17 12C17 14.7614 14.7614 17 12 17C9.23858 17 7 14.7614 7 12C8.12256 12 9.80525 12 11.0001 12C11.5524 12 12 11.5526 12 11.0003C12 9.56028 12 7.80006 12 7C14.7614 7 17 9.23858 17 12Z" fill="white" fill-opacity="0.2"/>
<path d="M17 12C17 14.7614 14.7614 17 12 17C9.23858 17 7 14.7614 7 12C8.12256 12 9.80525 12 11.0001 12C11.5524 12 12 11.5526 12 11.0003C12 9.56028 12 7.80006 12 7C14.7614 7 17 9.23858 17 12Z" fill="white" fill-opacity="0.2"/>
</svg>
