<svg width="24" height="24" viewBox="0 0 24 24" fill="none" xmlns="http://www.w3.org/2000/svg">
<path d="M9.56433 15.8366C9.27438 15.4418 9.04454 15.1049 8.84254 14.8118L5.84556 10.3608C5.53956 9.91583 4.90055 9.79203 4.44255 10.088C3.98455 10.385 3.85654 11.0041 4.16154 11.4481L7.15956 15.899C8.05955 17.2088 9.81556 17.3751 10.9626 16.2627C10.5 16.3203 10 16.4299 9.56433 15.8366Z" fill="white" fill-opacity="0.4"/>
<path d="M18.9912 6C18.7362 6 18.4692 6.08319 18.2742 6.27182L9.56418 14.8992C9.30718 15.1488 9.08091 15.1624 8.87891 14.8693C8.87891 14.8693 9.27594 15.4409 9.56418 15.8366C10 16.4349 10.5 16.3202 10.9672 16.2602L19.7082 7.6628C20.0972 7.28458 20.0972 6.65004 19.7082 6.27182C19.5132 6.08319 19.2462 6 18.9912 6Z" fill="white"/>
</svg>
