<svg width="24" height="24" viewBox="0 0 24 24" fill="none" xmlns="http://www.w3.org/2000/svg">
<path d="M4.27156 14.2543C3.70756 14.8207 3.25055 15.9466 2.77055 17.6138C2.56955 18.3128 2.40857 19.0691 2.23857 19.8123C2.17957 20.0724 2.03055 20.7654 2.02055 20.8176C1.88055 21.5207 2.47656 22.1192 3.17656 21.9796C3.22956 21.9686 3.91857 21.8189 4.17757 21.7597C4.91757 21.5889 5.67056 21.4273 6.36656 21.2254C8.02657 20.7433 9.14757 20.2843 9.71157 19.7179L19.2176 10.1465C19.5286 9.83413 19.5786 9.35402 19.3926 8.9784L14.5117 4C14.5117 4 7.2233 11.2897 4.27156 14.2543ZM14.4956 6.84319L17.0596 9.44949L8.27355 18.2736C8.04655 18.5016 7.10755 18.9003 5.80354 19.279C5.33654 19.4136 4.83357 19.5331 4.33357 19.6556C4.45557 19.1534 4.57457 18.6482 4.70857 18.1792C5.08557 16.8695 5.48255 15.9265 5.70955 15.6985L14.4956 6.84319Z" fill="white" fill-opacity="0.8"/>
<path fill-rule="evenodd" clip-rule="evenodd" d="M17.2817 2.27948C17.4686 2.09342 17.7344 1.99988 18.0003 1.99988C18.7449 1.99988 19.7603 2.32125 20.7187 3.27548C21.6772 4.2297 22 5.24067 22 5.98196C22 6.24664 21.906 6.51131 21.7192 6.69738L19.3945 8.99988L17.9793 7.56978L19.9079 5.66525C19.7049 4.90344 18.8968 4.25823 18.3424 4.07555L16.4177 5.99563L15.0005 4.56529L17.2817 2.27948ZM12.0006 2.87064C12.7992 2.87064 13.6097 3.16615 14.2194 3.77311L14.5177 4.07436L13.0758 5.49423L12.7812 5.20394C12.3434 4.76812 11.6568 4.76812 11.2191 5.20394L8.71949 7.6935C8.53159 7.88056 8.26574 7.97311 7.99989 7.97311H7.00045C6.44776 7.97311 6 7.52734 6 6.97808C6 6.42784 6.44776 5.98209 7.00045 5.98209H7.56312L9.78188 3.77311C10.3915 3.16615 11.2011 2.87064 12.0006 2.87064Z" fill="white" fill-opacity="0.6"/>
</svg>
