<svg width="24" height="24" viewBox="0 0 24 24" fill="none" xmlns="http://www.w3.org/2000/svg">
<path fill-rule="evenodd" clip-rule="evenodd" d="M13.0172 2.46324C13.2623 2.22024 13.5882 2.12824 13.8922 2.18124C14.1961 2.23524 14.4949 2.43225 14.6422 2.74425C14.7012 2.86925 14.8097 3.09124 14.9859 3.30624C15.1494 3.50724 15.3318 3.66224 15.4547 3.71324C15.5046 3.73339 15.5703 3.73761 15.6509 3.74279C15.6583 3.74326 15.6658 3.74374 15.6734 3.74425C15.8706 3.75825 16.0858 3.71524 16.3297 3.65024C16.3942 3.63311 16.4578 3.6211 16.5091 3.61142C16.5566 3.60244 16.5936 3.59546 16.6109 3.58824C17.2471 3.32624 17.9476 3.77624 17.9859 4.46324C17.9961 4.64524 18.0301 4.94525 18.1422 5.24425C18.2107 5.42725 18.2856 5.57624 18.3609 5.65024C18.364 5.65324 18.3703 5.65174 18.3766 5.65024C18.3828 5.64874 18.3891 5.64724 18.3922 5.65024C18.4624 5.71324 18.5568 5.78524 18.7047 5.83824C18.9852 5.93824 19.3176 5.99325 19.4859 5.99425C20.1754 5.99725 20.6546 6.65723 20.4234 7.30623C20.4203 7.31517 20.4154 7.32781 20.4093 7.34347C20.3881 7.39789 20.3526 7.48885 20.3297 7.58825C20.2713 7.84025 20.2547 8.09623 20.2672 8.30623C20.2741 8.42323 20.3025 8.49223 20.3297 8.55623C20.3787 8.67323 20.4877 8.81825 20.6734 8.96325C20.8794 9.12425 21.0881 9.25823 21.2047 9.30624C21.834 9.57124 22.0295 10.3563 21.5797 10.8693C21.5158 10.9423 21.4147 11.1112 21.2984 11.3062C21.145 11.5652 21.0318 11.7883 21.0172 11.9633V12.0253C21.0178 12.1853 21.1058 12.4013 21.2672 12.6503C21.3796 12.8243 21.4899 12.9663 21.5484 13.0253C22.0301 13.5133 21.8835 14.3203 21.2672 14.6193C21.142 14.6803 20.9201 14.8153 20.7047 14.9943C20.5047 15.1603 20.381 15.3373 20.3297 15.4633C20.311 15.5083 20.3067 15.5686 20.3016 15.6384C20.3006 15.6523 20.2996 15.6666 20.2984 15.6812C20.2826 15.8802 20.2965 16.1243 20.3609 16.3693C20.3862 16.4651 20.4214 16.5439 20.442 16.59C20.4474 16.6021 20.4518 16.612 20.4547 16.6193C20.7148 17.2593 20.2388 17.9643 19.5484 17.9943C19.3681 18.0023 19.0633 18.0413 18.7672 18.1503C18.6491 18.1943 18.5684 18.2543 18.4972 18.3071C18.4827 18.3178 18.4686 18.3283 18.4547 18.3383C18.4141 18.3793 18.3709 18.4223 18.3297 18.4633C18.3182 18.4793 18.3058 18.4948 18.293 18.5108C18.2517 18.5627 18.2066 18.6193 18.1734 18.7133C18.0729 18.9973 18.0493 19.3233 18.0484 19.4943C18.0449 20.1793 17.3521 20.6553 16.7047 20.4313C16.6933 20.4275 16.6782 20.4204 16.6593 20.4115C16.6133 20.39 16.5452 20.3581 16.4547 20.3383C16.2004 20.2813 15.9492 20.2623 15.7359 20.2753C15.6157 20.2823 15.5212 20.3103 15.4547 20.3383C15.3377 20.3873 15.1916 20.4993 15.0484 20.6813C14.8891 20.8853 14.7837 21.0983 14.7359 21.2133C14.4709 21.8483 13.6547 22.0483 13.1422 21.5883C13.0701 21.5233 12.8988 21.3933 12.7047 21.2753C12.4462 21.1183 12.2189 21.0383 12.0484 21.0253H12.0172C11.8603 21.0263 11.6116 21.1113 11.3609 21.2753C11.1855 21.3903 11.0463 21.4963 10.9859 21.5563C10.4984 22.0433 9.69052 21.8963 9.39222 21.2753C9.33112 21.1483 9.19632 20.9313 9.01722 20.7133C8.85042 20.5103 8.67252 20.3883 8.54842 20.3383C8.53584 20.333 8.52352 20.3271 8.51088 20.321C8.47048 20.3016 8.42681 20.2806 8.36092 20.2753C8.16602 20.2613 7.91592 20.3033 7.67342 20.3693C7.61393 20.3853 7.56156 20.397 7.5194 20.4065C7.47467 20.4166 7.44144 20.424 7.42342 20.4313C6.78642 20.6993 6.08702 20.2773 6.04842 19.5883C6.03822 19.4053 5.97282 19.0753 5.86092 18.7753C5.80252 18.6193 5.73702 18.5132 5.67342 18.4312C5.6652 18.4232 5.66148 18.4117 5.65776 18.4002C5.65405 18.3887 5.65035 18.3772 5.64222 18.3693C5.57372 18.3013 5.45652 18.2382 5.29842 18.1812C5.01892 18.0822 4.54842 18.0562 4.54842 18.0562C3.86022 18.0572 3.38472 17.3633 3.61092 16.7133C3.62432 16.6743 3.64482 16.5893 3.67342 16.4633C3.73072 16.2093 3.74922 15.9573 3.73592 15.7443C3.73414 15.7159 3.73301 15.6888 3.73194 15.6631C3.72853 15.5815 3.72569 15.5134 3.70472 15.4633C3.65522 15.3453 3.51372 15.2012 3.32972 15.0562C3.12522 14.8962 2.91372 14.7933 2.79842 14.7443C2.16682 14.4773 1.99762 13.6613 2.45472 13.1503C2.50912 13.0895 2.58812 12.9584 2.68208 12.8024C2.69953 12.7735 2.7175 12.7436 2.73592 12.7133C2.89232 12.4543 3.00412 12.2282 3.01722 12.0562C3.01787 12.0478 3.01767 12.0423 3.01746 12.0362C3.01734 12.0329 3.01722 12.0295 3.01722 12.0253C3.01652 11.8683 2.93082 11.6193 2.76722 11.3693C2.65272 11.1943 2.51462 11.0543 2.45472 10.9943C1.97032 10.5083 2.11902 9.70126 2.73592 9.40026C2.86182 9.33926 3.08212 9.20526 3.29842 9.02526C3.49952 8.85826 3.65332 8.68223 3.70472 8.55623C3.725 8.50738 3.72845 8.46364 3.73435 8.38895C3.73485 8.38262 3.73537 8.37606 3.73592 8.36925C3.75182 8.17225 3.70712 7.92623 3.64222 7.68123C3.62714 7.62475 3.61559 7.57414 3.60613 7.53268C3.59532 7.48533 3.58724 7.44989 3.57972 7.43123C3.31862 6.79623 3.76862 6.09623 4.45472 6.05623C4.63702 6.04623 4.93692 5.98125 5.23592 5.86925C5.41912 5.80025 5.56732 5.72624 5.64222 5.65024C5.71062 5.58124 5.77262 5.46525 5.82972 5.30625C5.93042 5.02624 5.98532 4.72524 5.98592 4.55624C5.98832 3.86624 6.64822 3.38525 7.29842 3.61925C7.32095 3.6274 7.36947 3.63725 7.4312 3.64978C7.47548 3.65876 7.52655 3.66913 7.57972 3.68124C7.83122 3.74024 8.08892 3.78824 8.29842 3.77524C8.41292 3.76824 8.48452 3.74024 8.54842 3.71324C8.66582 3.66424 8.80802 3.52524 8.95472 3.33824C9.11692 3.13124 9.24862 2.92424 9.29842 2.80624C9.56552 2.17624 10.3808 2.00824 10.8922 2.46324C10.9643 2.52724 11.104 2.62725 11.2984 2.74425C11.5572 2.90025 11.7827 3.01224 11.9547 3.02524C11.9646 3.02596 11.9866 3.02564 12.0025 3.0254C12.0087 3.02531 12.0139 3.02524 12.0172 3.02524C12.1755 3.02524 12.3913 2.90725 12.6422 2.74425C12.8173 2.63025 12.957 2.52224 13.0172 2.46324ZM12 19C15.866 19 19 15.866 19 12C19 8.13401 15.866 5 12 5C8.13401 5 5 8.13401 5 12C5 15.866 8.13401 19 12 19Z" fill="white" fill-opacity="0.4"/>
<path fill-rule="evenodd" clip-rule="evenodd" d="M5.48682 14.5701L9.04757 12.5354C9.01628 12.3617 8.99994 12.1827 8.99994 12C8.99994 10.6938 9.83475 9.58254 10.9999 9.17071V5.07089C11.3265 5.02417 11.6604 5 11.9999 5C12.3395 5 12.6733 5.02417 12.9999 5.07089V9.17071C14.1651 9.58254 14.9999 10.6938 14.9999 12C14.9999 12.1827 14.9836 12.3616 14.9523 12.5353L18.5131 14.5701C18.265 15.1982 17.9287 15.7819 17.5194 16.3058L13.9596 14.2716C13.4339 14.7255 12.749 15 11.9999 15C11.2509 15 10.566 14.7255 10.0403 14.2716L6.48048 16.3058C6.0712 15.7819 5.73489 15.1982 5.48682 14.5701ZM10.9999 12C10.9999 11.4477 11.4477 11 11.9999 11C12.5522 11 12.9999 11.4477 12.9999 12C12.9999 12.5523 12.5522 13 11.9999 13C11.4477 13 10.9999 12.5523 10.9999 12Z" fill="white"/>
</svg>
