<svg width="24" height="24" viewBox="0 0 24 24" fill="none" xmlns="http://www.w3.org/2000/svg">
<path d="M5.0102 4C4.75467 4 4.48746 4.08594 4.29245 4.2808C3.90252 4.67152 3.90252 5.32704 4.29245 5.71776L10.5646 11.9943L4.29245 18.2708C3.90252 18.6615 3.90252 19.317 4.29245 19.7077C4.68248 20.0974 5.33792 20.0974 5.72795 19.7077L12 13.4312L18.272 19.7077C18.6621 20.0974 19.3175 20.0974 19.7076 19.7077C20.0975 19.317 20.0975 18.6615 19.7076 18.2708L13.4354 11.9943L19.7076 5.71776C20.0975 5.32704 20.0975 4.67152 19.7076 4.2808C19.5125 4.08594 19.2452 4 18.9898 4C18.7343 4 18.4672 4.08594 18.272 4.2808L12 10.5573L5.72795 4.2808C5.53294 4.08594 5.26573 4 5.0102 4Z" fill="white"/>
</svg>
